<mxfile host="app.diagrams.net" modified="2023-02-06T04:46:29.444Z" agent="5.0 (Macintosh; Intel Mac OS X 10_15_7) AppleWebKit/537.36 (KHTML, like Gecko) Chrome/109.0.0.0 Safari/537.36" etag="gWMXeY9k-UAS_lIBs3lv" version="20.8.16" type="github">
  <diagram name="第 1 页" id="pwnamHfonwFMPaj2_7e_">
    <mxGraphModel dx="2074" dy="1156" grid="1" gridSize="10" guides="1" tooltips="1" connect="1" arrows="1" fold="1" page="1" pageScale="1" pageWidth="827" pageHeight="1169" math="0" shadow="0">
      <root>
        <mxCell id="0" />
        <mxCell id="1" parent="0" />
        <mxCell id="CD8uOtf8aZ3cqjtiaQSz-2" value="options合并：开发者 + default" style="text;html=1;strokeColor=none;fillColor=none;align=center;verticalAlign=middle;whiteSpace=wrap;rounded=0;" vertex="1" parent="1">
          <mxGeometry x="220" y="190" width="210" height="60" as="geometry" />
        </mxCell>
        <mxCell id="CD8uOtf8aZ3cqjtiaQSz-4" value="&lt;pre style=&quot;background-color:#fdf6e3;color:#2f3f50;font-family:&#39;Fira Code&#39;,monospace;font-size:11.3pt;&quot;&gt;&lt;span style=&quot;color:#9b3a63;font-weight:bold;&quot;&gt;extendAppWxss&lt;br&gt;@import app.wxss 到index.wxss&lt;/span&gt;&lt;/pre&gt;" style="text;whiteSpace=wrap;html=1;" vertex="1" parent="1">
          <mxGeometry x="180" y="300" width="300" height="80" as="geometry" />
        </mxCell>
        <mxCell id="CD8uOtf8aZ3cqjtiaQSz-5" value="&lt;pre style=&quot;background-color:#fdf6e3;color:#2f3f50;font-family:&#39;Fira Code&#39;,monospace;font-size:11.3pt;&quot;&gt;&lt;span style=&quot;color:#9b3a63;font-weight:bold;&quot;&gt;addRuntimeGuru&lt;/span&gt;&lt;/pre&gt;" style="text;whiteSpace=wrap;html=1;" vertex="1" parent="1">
          <mxGeometry x="180" y="420" width="160" height="70" as="geometry" />
        </mxCell>
      </root>
    </mxGraphModel>
  </diagram>
</mxfile>
